<mxfile host="app.diagrams.net" agent="Mozilla/5.0 (Windows NT 10.0; Win64; x64) AppleWebKit/537.36 (KHTML, like Gecko) Chrome/138.0.0.0 Safari/537.36" version="28.0.4">
  <diagram id="prtHgNgQTEPvFCAcTncT" name="Page-1">
    <mxGraphModel dx="218" dy="422" grid="1" gridSize="10" guides="1" tooltips="1" connect="1" arrows="1" fold="1" page="1" pageScale="1" pageWidth="827" pageHeight="1169" math="0" shadow="0">
      <root>
        <mxCell id="0" />
        <mxCell id="1" parent="0" />
        <mxCell id="dNxyNK7c78bLwvsdeMH5-19" value="Pool" style="swimlane;html=1;childLayout=stackLayout;resizeParent=1;resizeParentMax=0;horizontal=0;startSize=20;horizontalStack=0;" parent="1" vertex="1">
          <mxGeometry x="120" y="120" width="1040" height="460" as="geometry" />
        </mxCell>
        <mxCell id="dNxyNK7c78bLwvsdeMH5-20" value="Клиент" style="swimlane;html=1;startSize=20;horizontal=0;" parent="dNxyNK7c78bLwvsdeMH5-19" vertex="1">
          <mxGeometry x="20" width="1020" height="460" as="geometry" />
        </mxCell>
        <mxCell id="fLUYSY6B5hweBGLfyEtN-40" value="" style="edgeStyle=orthogonalEdgeStyle;rounded=0;orthogonalLoop=1;jettySize=auto;html=1;" edge="1" parent="dNxyNK7c78bLwvsdeMH5-20" source="dNxyNK7c78bLwvsdeMH5-23" target="fLUYSY6B5hweBGLfyEtN-39">
          <mxGeometry relative="1" as="geometry" />
        </mxCell>
        <mxCell id="dNxyNK7c78bLwvsdeMH5-23" value="&lt;font style=&quot;font-size: 8px;&quot;&gt;Решение сделать ремонт&lt;/font&gt;" style="ellipse;whiteSpace=wrap;html=1;" parent="dNxyNK7c78bLwvsdeMH5-20" vertex="1">
          <mxGeometry x="30" y="10" width="60" height="50" as="geometry" />
        </mxCell>
        <mxCell id="dNxyNK7c78bLwvsdeMH5-30" value="&lt;font style=&quot;font-size: 6px;&quot;&gt;Статус&amp;nbsp;&lt;/font&gt;&lt;div&gt;&lt;font style=&quot;font-size: 6px;&quot;&gt;&quot;В обработке&quot;&lt;/font&gt;&lt;/div&gt;" style="rounded=0;whiteSpace=wrap;html=1;fontFamily=Helvetica;fontSize=12;fontColor=#000000;align=center;" parent="dNxyNK7c78bLwvsdeMH5-20" vertex="1">
          <mxGeometry x="366" y="10" width="60" height="40" as="geometry" />
        </mxCell>
        <mxCell id="dNxyNK7c78bLwvsdeMH5-32" value="" style="ellipse;whiteSpace=wrap;html=1;" parent="dNxyNK7c78bLwvsdeMH5-20" vertex="1">
          <mxGeometry x="810" y="90" width="40" height="40" as="geometry" />
        </mxCell>
        <mxCell id="fLUYSY6B5hweBGLfyEtN-16" value="&lt;span style=&quot;font-size: 6px;&quot;&gt;Согласовать&amp;nbsp;&lt;/span&gt;" style="rounded=0;whiteSpace=wrap;html=1;" vertex="1" parent="dNxyNK7c78bLwvsdeMH5-20">
          <mxGeometry x="366" y="60" width="70" height="40" as="geometry" />
        </mxCell>
        <mxCell id="dNxyNK7c78bLwvsdeMH5-21" value="" style="swimlane;html=1;startSize=20;horizontal=0;" parent="dNxyNK7c78bLwvsdeMH5-20" vertex="1">
          <mxGeometry y="160" width="1020" height="230" as="geometry" />
        </mxCell>
        <mxCell id="fLUYSY6B5hweBGLfyEtN-8" value="&lt;font style=&quot;font-size: 6px;&quot;&gt;Принимает заявку&lt;/font&gt;" style="rhombus;whiteSpace=wrap;html=1;" vertex="1" parent="dNxyNK7c78bLwvsdeMH5-21">
          <mxGeometry x="120" y="20" width="50" height="50" as="geometry" />
        </mxCell>
        <mxCell id="dNxyNK7c78bLwvsdeMH5-34" value="&lt;font style=&quot;font-size: 6px;&quot;&gt;Обсуждение важных моментов&lt;/font&gt;" style="rounded=0;whiteSpace=wrap;html=1;fontFamily=Helvetica;fontSize=12;fontColor=#000000;align=center;" parent="dNxyNK7c78bLwvsdeMH5-21" vertex="1">
          <mxGeometry x="273.5" y="50" width="70" height="45" as="geometry" />
        </mxCell>
        <mxCell id="fLUYSY6B5hweBGLfyEtN-20" style="edgeStyle=orthogonalEdgeStyle;rounded=0;orthogonalLoop=1;jettySize=auto;html=1;entryX=0.5;entryY=1;entryDx=0;entryDy=0;" edge="1" parent="dNxyNK7c78bLwvsdeMH5-21" source="fLUYSY6B5hweBGLfyEtN-8" target="dNxyNK7c78bLwvsdeMH5-34">
          <mxGeometry relative="1" as="geometry" />
        </mxCell>
        <mxCell id="fLUYSY6B5hweBGLfyEtN-21" value="&lt;font style=&quot;font-size: 8px;&quot;&gt;да&lt;/font&gt;" style="edgeLabel;html=1;align=center;verticalAlign=middle;resizable=0;points=[];" vertex="1" connectable="0" parent="fLUYSY6B5hweBGLfyEtN-20">
          <mxGeometry x="-0.6468" y="-1" relative="1" as="geometry">
            <mxPoint as="offset" />
          </mxGeometry>
        </mxCell>
        <mxCell id="fLUYSY6B5hweBGLfyEtN-28" value="&lt;font style=&quot;font-size: 6px;&quot;&gt;Преступление к выполнению проекта&lt;/font&gt;" style="rounded=0;whiteSpace=wrap;html=1;" vertex="1" parent="dNxyNK7c78bLwvsdeMH5-21">
          <mxGeometry x="450" y="60" width="80" height="40" as="geometry" />
        </mxCell>
        <mxCell id="fLUYSY6B5hweBGLfyEtN-22" value="&lt;font style=&quot;font-size: 6px;&quot;&gt;Согласовались&lt;/font&gt;" style="rhombus;whiteSpace=wrap;html=1;" vertex="1" parent="dNxyNK7c78bLwvsdeMH5-21">
          <mxGeometry x="460" y="-32.5" width="60" height="60" as="geometry" />
        </mxCell>
        <mxCell id="fLUYSY6B5hweBGLfyEtN-29" value="&lt;font style=&quot;font-size: 8px;&quot;&gt;да&lt;/font&gt;" style="edgeStyle=orthogonalEdgeStyle;rounded=0;orthogonalLoop=1;jettySize=auto;html=1;exitX=0.5;exitY=1;exitDx=0;exitDy=0;entryX=0.5;entryY=0;entryDx=0;entryDy=0;" edge="1" parent="dNxyNK7c78bLwvsdeMH5-21" source="fLUYSY6B5hweBGLfyEtN-22" target="fLUYSY6B5hweBGLfyEtN-28">
          <mxGeometry relative="1" as="geometry" />
        </mxCell>
        <mxCell id="fLUYSY6B5hweBGLfyEtN-25" style="edgeStyle=orthogonalEdgeStyle;rounded=0;orthogonalLoop=1;jettySize=auto;html=1;entryX=0;entryY=0.5;entryDx=0;entryDy=0;" edge="1" parent="dNxyNK7c78bLwvsdeMH5-21" source="dNxyNK7c78bLwvsdeMH5-34" target="fLUYSY6B5hweBGLfyEtN-22">
          <mxGeometry relative="1" as="geometry" />
        </mxCell>
        <mxCell id="dNxyNK7c78bLwvsdeMH5-22" value="Lane 3" style="swimlane;html=1;startSize=20;horizontal=0;" parent="dNxyNK7c78bLwvsdeMH5-21" vertex="1">
          <mxGeometry y="110" width="1020" height="120" as="geometry" />
        </mxCell>
        <mxCell id="fLUYSY6B5hweBGLfyEtN-36" value="&lt;b&gt;Подрядчик&lt;/b&gt;" style="text;html=1;align=center;verticalAlign=middle;whiteSpace=wrap;rounded=0;rotation=-90;" vertex="1" parent="dNxyNK7c78bLwvsdeMH5-21">
          <mxGeometry x="-20" y="50" width="60" height="30" as="geometry" />
        </mxCell>
        <mxCell id="fLUYSY6B5hweBGLfyEtN-10" style="edgeStyle=orthogonalEdgeStyle;rounded=0;orthogonalLoop=1;jettySize=auto;html=1;entryX=0.5;entryY=1;entryDx=0;entryDy=0;" edge="1" parent="dNxyNK7c78bLwvsdeMH5-20" source="fLUYSY6B5hweBGLfyEtN-8" target="dNxyNK7c78bLwvsdeMH5-23">
          <mxGeometry relative="1" as="geometry" />
        </mxCell>
        <mxCell id="fLUYSY6B5hweBGLfyEtN-11" value="&lt;font style=&quot;font-size: 8px;&quot;&gt;нет&lt;/font&gt;" style="edgeLabel;html=1;align=center;verticalAlign=middle;resizable=0;points=[];" vertex="1" connectable="0" parent="fLUYSY6B5hweBGLfyEtN-10">
          <mxGeometry x="-0.7251" relative="1" as="geometry">
            <mxPoint as="offset" />
          </mxGeometry>
        </mxCell>
        <mxCell id="fLUYSY6B5hweBGLfyEtN-17" style="edgeStyle=orthogonalEdgeStyle;rounded=0;orthogonalLoop=1;jettySize=auto;html=1;entryX=0.5;entryY=1;entryDx=0;entryDy=0;" edge="1" parent="dNxyNK7c78bLwvsdeMH5-20" source="fLUYSY6B5hweBGLfyEtN-8" target="fLUYSY6B5hweBGLfyEtN-16">
          <mxGeometry relative="1" as="geometry">
            <mxPoint x="210" y="160" as="targetPoint" />
          </mxGeometry>
        </mxCell>
        <mxCell id="fLUYSY6B5hweBGLfyEtN-27" value="&lt;font style=&quot;font-size: 8px;&quot;&gt;нет&lt;/font&gt;" style="edgeStyle=orthogonalEdgeStyle;rounded=0;orthogonalLoop=1;jettySize=auto;html=1;entryX=0.5;entryY=1;entryDx=0;entryDy=0;" edge="1" parent="dNxyNK7c78bLwvsdeMH5-20" source="fLUYSY6B5hweBGLfyEtN-22" target="fLUYSY6B5hweBGLfyEtN-26">
          <mxGeometry relative="1" as="geometry" />
        </mxCell>
        <mxCell id="fLUYSY6B5hweBGLfyEtN-26" value="&lt;font style=&quot;font-size: 6px;&quot;&gt;Отклоненные заявки&lt;/font&gt;" style="shape=datastore;whiteSpace=wrap;html=1;" vertex="1" parent="dNxyNK7c78bLwvsdeMH5-20">
          <mxGeometry x="460" y="10" width="60" height="60" as="geometry" />
        </mxCell>
        <mxCell id="fLUYSY6B5hweBGLfyEtN-38" value="" style="edgeStyle=orthogonalEdgeStyle;rounded=0;orthogonalLoop=1;jettySize=auto;html=1;" edge="1" parent="dNxyNK7c78bLwvsdeMH5-20" source="fLUYSY6B5hweBGLfyEtN-32" target="fLUYSY6B5hweBGLfyEtN-37">
          <mxGeometry relative="1" as="geometry" />
        </mxCell>
        <mxCell id="fLUYSY6B5hweBGLfyEtN-32" value="&lt;font style=&quot;font-size: 6px;&quot;&gt;Статус&amp;nbsp;&lt;/font&gt;&lt;div&gt;&lt;font style=&quot;font-size: 6px;&quot;&gt;&quot;В работе&quot;&lt;/font&gt;&lt;/div&gt;" style="rounded=0;whiteSpace=wrap;html=1;" vertex="1" parent="dNxyNK7c78bLwvsdeMH5-20">
          <mxGeometry x="570" y="100" width="80" height="40" as="geometry" />
        </mxCell>
        <mxCell id="fLUYSY6B5hweBGLfyEtN-34" style="edgeStyle=orthogonalEdgeStyle;rounded=0;orthogonalLoop=1;jettySize=auto;html=1;entryX=0.5;entryY=1;entryDx=0;entryDy=0;" edge="1" parent="dNxyNK7c78bLwvsdeMH5-20" source="fLUYSY6B5hweBGLfyEtN-28" target="fLUYSY6B5hweBGLfyEtN-32">
          <mxGeometry relative="1" as="geometry" />
        </mxCell>
        <mxCell id="fLUYSY6B5hweBGLfyEtN-35" value="&lt;b&gt;Клиент&lt;/b&gt;" style="text;html=1;align=center;verticalAlign=middle;whiteSpace=wrap;rounded=0;rotation=-90;" vertex="1" parent="dNxyNK7c78bLwvsdeMH5-20">
          <mxGeometry x="-20" y="60" width="60" height="30" as="geometry" />
        </mxCell>
        <mxCell id="fLUYSY6B5hweBGLfyEtN-37" value="&lt;font style=&quot;font-size: 8px;&quot;&gt;Проекты&lt;/font&gt;" style="shape=datastore;whiteSpace=wrap;html=1;" vertex="1" parent="dNxyNK7c78bLwvsdeMH5-20">
          <mxGeometry x="580" y="10" width="60" height="60" as="geometry" />
        </mxCell>
        <mxCell id="fLUYSY6B5hweBGLfyEtN-48" style="edgeStyle=orthogonalEdgeStyle;rounded=0;orthogonalLoop=1;jettySize=auto;html=1;" edge="1" parent="dNxyNK7c78bLwvsdeMH5-20" source="fLUYSY6B5hweBGLfyEtN-39">
          <mxGeometry relative="1" as="geometry">
            <mxPoint x="290" y="30" as="targetPoint" />
          </mxGeometry>
        </mxCell>
        <mxCell id="fLUYSY6B5hweBGLfyEtN-39" value="Создание заявки" style="rounded=0;whiteSpace=wrap;html=1;fontFamily=Helvetica;fontSize=12;fontColor=#000000;align=center;" vertex="1" parent="dNxyNK7c78bLwvsdeMH5-20">
          <mxGeometry x="110" y="10" width="100" height="40" as="geometry" />
        </mxCell>
        <mxCell id="fLUYSY6B5hweBGLfyEtN-50" style="edgeStyle=orthogonalEdgeStyle;rounded=0;orthogonalLoop=1;jettySize=auto;html=1;" edge="1" parent="dNxyNK7c78bLwvsdeMH5-20" source="fLUYSY6B5hweBGLfyEtN-49">
          <mxGeometry relative="1" as="geometry">
            <mxPoint x="140" y="170" as="targetPoint" />
            <Array as="points">
              <mxPoint x="350" y="90" />
              <mxPoint x="140" y="90" />
            </Array>
          </mxGeometry>
        </mxCell>
        <mxCell id="fLUYSY6B5hweBGLfyEtN-2" value="&lt;span style=&quot;font-size: 6px;&quot;&gt;RemoPro&lt;/span&gt;" style="shape=datastore;whiteSpace=wrap;html=1;" vertex="1" parent="dNxyNK7c78bLwvsdeMH5-20">
          <mxGeometry x="200" y="30" width="50" height="50" as="geometry" />
        </mxCell>
        <mxCell id="fLUYSY6B5hweBGLfyEtN-49" value="Направить на рассмотрение" style="rounded=0;whiteSpace=wrap;html=1;" vertex="1" parent="dNxyNK7c78bLwvsdeMH5-20">
          <mxGeometry x="180" width="120" height="60" as="geometry" />
        </mxCell>
        <mxCell id="fLUYSY6B5hweBGLfyEtN-41" value="" style="verticalLabelPosition=bottom;verticalAlign=top;html=1;shape=card;whiteSpace=wrap;size=20;arcSize=12;direction=east;" vertex="1" parent="1">
          <mxGeometry x="350" y="70" width="100" height="60" as="geometry" />
        </mxCell>
        <mxCell id="fLUYSY6B5hweBGLfyEtN-42" value="&lt;br&gt;&lt;font style=&quot;font-size: 8px;&quot;&gt;1. описание&lt;/font&gt;&lt;div&gt;&lt;font style=&quot;font-size: 8px;&quot;&gt;2. категория&lt;/font&gt;&lt;/div&gt;" style="text;html=1;align=center;verticalAlign=middle;whiteSpace=wrap;rounded=0;" vertex="1" parent="1">
          <mxGeometry x="370" y="80" width="60" height="30" as="geometry" />
        </mxCell>
      </root>
    </mxGraphModel>
  </diagram>
</mxfile>
